:SAMPLES-PER-SECOND 30
:FULLY-SPECIFIED
:DEGREES
538
root  -42.9304 34.1964 -7.08951 -167.815 66.8725 -170.965
RightUpLeg  -19.7191 -29.1197 -1.07017
RightLeg  20.5586 -0.158161 -0.0503755
RightFoot  6.95618 0.0255046 0.113668
RightToes  -36.1811 -0.188717 -0.292549
Spine  2.08091 -0.636658 -2.91757
Spine1  4.10258 -1.13497 -5.22447
HEad  -85.1171 -30.542 17.5708
LeftShoulder1  -1.94126e-019 -3.10601e-018 -2.51263e-017
LeftArm  2.34025 15.1523 -69.7503
LeftForeArm  37.5304 -11.4154 -1.99923
LeftHand  -0.589559 -1.63059 9.92127
RightShoulder  -4.96962e-017 0 -2.36833e-017
RightArm  -21.8269 -15.2016 80.1001
RightForeArm  65.3498 10.4624 1.53253
RightHand  -0.593854 0.780696 -11.2718
LeftUpLeg  -19.8617 25.5079 -0.0689628
LeftLeg  30.9923 15.5148 7.85954
LeftFoot  -5.5683 -0.0859296 -1.60528
LeftToes  -8.61568 1.83942e-006 5.51297e-008
539
root  -42.9596 34.2669 -6.87517 -168.168 66.8613 -171.479
RightUpLeg  -17.7741 -27.676 -2.31718
RightLeg  22.4692 -1.8046 -0.61712
RightFoot  4.57519 0.0214494 0.0014533
RightToes  -33.4257 -0.168209 -0.275057
Spine  1.79314 -0.615315 -2.97444
Spine1  3.5371 -1.10289 -5.31179
HEad  -85.1903 -30.5223 17.4
LeftShoulder1  -1.94126e-019 -3.10601e-018 -2.51263e-017
LeftArm  2.11168 16.235 -69.74
LeftForeArm  37.3418 -11.8038 -2.06552
LeftHand  -0.584271 -1.83893 9.56593
RightShoulder  -4.96962e-017 0 -2.36833e-017
RightArm  -20.5794 -16.2918 79.5162
RightForeArm  64.4766 11.4088 1.50234
RightHand  -0.581681 1.10372 -10.5208
LeftUpLeg  -19.6717 25.3945 -0.0779047
LeftLeg  29.9223 15.6807 7.58444
LeftFoot  -4.6514 -0.0600606 -1.3172
LeftToes  -9.29933 1.83942e-006 5.51297e-008
540
root  -42.965 34.3053 -6.63332 -168.875 66.8995 -172.042
RightUpLeg  -15.2692 -25.3262 -3.52775
RightLeg  23.92 -3.31765 -1.22634
RightFoot  1.94482 0.00808897 0.0531678
RightToes  -31.295 -0.152939 -0.260865
Spine  1.66061 -0.524921 -3.02933
Spine1  3.27582 -0.925409 -5.39834
HEad  -85.732 -30.1921 17.7348
LeftShoulder1  -1.94126e-019 -3.10601e-018 -2.51263e-017
LeftArm  1.97429 17.118 -69.7297
LeftForeArm  36.2637 -12.9339 -2.25488
LeftHand  -0.553057 -2.14168 8.7227
RightShoulder  -4.96962e-017 0 -2.36833e-017
RightArm  -17.9005 -17.2476 78.9329
RightForeArm  61.7391 13.1107 1.32969
RightHand  -0.572362 1.43294 -9.88139
LeftUpLeg  -19.3825 25.2855 0.094631
LeftLeg  29.3842 15.8299 7.4756
LeftFoot  -3.81071 -0.0405164 -1.05631
LeftToes  -10.2176 1.83942e-006 5.51297e-008
541
root  -42.9623 34.2998 -6.362 -169.739 67.2495 -172.478
RightUpLeg  -12.5156 -21.6907 -4.43512
RightLeg  24.8869 -4.07489 -1.58377
RightFoot  -0.749679 -0.00186893 0.245812
RightToes  -29.2343 -0.138684 -0.246609
Spine  1.61716 -0.371806 -3.06636
Spine1  3.18635 -0.618303 -5.45106
HEad  -86.2748 -29.2512 18.1887
LeftShoulder1  -1.94126e-019 -3.10601e-018 -2.51263e-017
LeftArm  1.89704 17.9055 -69.7036
LeftForeArm  34.8595 -14.3777 -2.47472
LeftHand  -0.55762 -1.83324 9.14536
RightShoulder  -4.96962e-017 0 -2.36833e-017
RightArm  -15.3388 -17.7229 78.4008
RightForeArm  58.9131 14.8389 1.09813
RightHand  -0.566983 1.50694 -9.69099
LeftUpLeg  -19.0105 25.3013 0.473428
LeftLeg  29.3867 16.0866 7.59319
LeftFoot  -3.18528 -0.0287516 -0.872495
LeftToes  -11.1301 1.83942e-006 5.51297e-008
542
root  -42.9791 34.2455 -6.06054 -170.762 67.708 -173.206
RightUpLeg  -10.1784 -18.3958 -4.92773
RightLeg  25.4381 -3.45583 -1.38322
RightFoot  -2.71594 -0.00503072 0.369609
RightToes  -28.1868 -0.131637 -0.239169
Spine  1.52225 -0.31314 -3.11921
Spine1  3.00023 -0.507439 -5.53149
HEad  -86.4442 -28.0882 18.39
LeftShoulder1  -1.94126e-019 -3.10601e-018 -2.51263e-017
LeftArm  1.86461 18.599 -69.6735
LeftForeArm  33.6344 -15.4977 -2.62283
LeftHand  -0.545754 -1.94801 8.82322
RightShoulder  -4.96962e-017 0 -2.36833e-017
RightArm  -14.2255 -17.6242 78.0924
RightForeArm  57.607 16.3749 1.05213
RightHand  -0.595736 1.64604 -9.98296
LeftUpLeg  -19.0604 25.5444 0.696676
LeftLeg  29.9428 16.125 7.79828
LeftFoot  -2.87925 -0.0235635 -0.77603
LeftToes  -11.5247 1.83942e-006 5.51297e-008
543
root  -43.0208 34.1259 -5.72378 -171.965 68.6267 -174.254
RightUpLeg  -8.37387 -15.356 -5.16051
RightLeg  25.454 -2.3875 -0.95863
RightFoot  -3.96567 -0.00686829 0.369762
RightToes  -29.9301 -0.14344 -0.25148
Spine  1.36356 -0.219249 -3.20306
Spine1  2.6798 -0.327324 -5.68309
HEad  -86.3208 -26.7635 18.4011
LeftShoulder1  -1.94126e-019 -3.10601e-018 -2.51263e-017
LeftArm  2.25285 19.3413 -69.5697
LeftForeArm  32.6355 -16.5804 -2.74983
LeftHand  -0.537926 -1.92129 8.72933
RightShoulder  -4.96962e-017 0 -2.36833e-017
RightArm  -13.3545 -17.5323 77.9314
RightForeArm  56.7104 19.0633 1.38055
RightHand  -0.511516 0.390401 -10.3488
LeftUpLeg  -19.6355 26.6576 0.758984
LeftLeg  31.2109 15.6736 8.01048
LeftFoot  -2.75264 -0.0210662 -0.71524
LeftToes  -12.3251 1.83942e-006 5.51297e-008
544
root  -43.0837 33.9629 -5.3603 -173.282 69.9785 -175.185
RightUpLeg  -6.72852 -13.4174 -5.36698
RightLeg  24.0492 -0.936442 -0.352195
RightFoot  -6.60928 -0.014247 0.306428
RightToes  -33.636 -0.169743 -0.276426
Spine  1.34765 0.0160497 -3.24392
Spine1  2.62586 0.155111 -5.76905
HEad  -86.2634 -25.4436 18.2415
LeftShoulder1  -1.94126e-019 -3.10601e-018 -2.51263e-017
LeftArm  2.74083 19.5209 -69.6149
LeftForeArm  32.225 -17.2081 -2.81606
LeftHand  -0.545591 -1.78831 9.00493
RightShoulder  -4.96962e-017 0 -2.36833e-017
RightArm  -12.7245 -16.7641 77.8528
RightForeArm  56.0497 21.021 1.76172
RightHand  -0.605567 1.56745 -10.2528
LeftUpLeg  -20.1588 28.3886 1.03649
LeftLeg  32.859 15.0383 8.23848
LeftFoot  -2.82542 -0.0215557 -0.712495
LeftToes  -12.9859 1.83942e-006 5.51297e-008
545
root  -43.1919 33.8484 -4.95203 -173.577 71.7872 -174.761
RightUpLeg  -7.0422 -14.2371 -5.10161
RightLeg  24.5781 1.19483 0.451044
RightFoot  -6.5895 -0.0291078 0.0343912
RightToes  -33.8887 -0.171595 -0.278064
Spine  1.54855 0.281561 -3.04704
Spine1  2.9946 0.714203 -5.39709
HEad  -86.863 -23.6608 17.9437
LeftShoulder1  -1.94126e-019 -3.10601e-018 -2.51263e-017
LeftArm  1.64489 18.9028 -70.4945
LeftForeArm  32.6874 -16.3373 -2.68948
LeftHand  -0.555851 -1.92823 9.0056
RightShoulder  -4.96962e-017 0 -2.36833e-017
RightArm  -11.8019 -14.9659 77.7938
RightForeArm  55.683 21.7098 1.9008
RightHand  -0.74788 2.28192 -11.4911
LeftUpLeg  -20.2476 30.1658 1.98718
LeftLeg  34.2871 14.7958 8.58505
LeftFoot  -2.61507 -0.0184143 -0.645205
LeftToes  -13.7988 1.83942e-006 5.51297e-008
546
root  -43.3264 33.8414 -4.50382 -173.022 74.0671 -173.589
RightUpLeg  -8.63732 -12.7273 -4.2473
RightLeg  26.8715 1.6928 0.718064
RightFoot  -6.03096 -0.0290924 -0.0146818
RightToes  -31.8983 -0.170489 -0.277065
Spine  1.68382 0.565969 -2.67693
Spine1  3.25088 1.29021 -4.6633
HEad  -86.683 -21.8736 16.8786
LeftShoulder1  -1.94126e-019 -3.10601e-018 -2.51263e-017
LeftArm  -1.53602 18.1076 -72.3795
LeftForeArm  34.4293 -14.3221 -2.44133
LeftHand  -0.54643 -1.33394 9.59212
RightShoulder  -4.96962e-017 0 -2.36833e-017
RightArm  -10.5745 -12.839 77.7087
RightForeArm  55.4226 21.9428 1.95514
RightHand  -0.754661 2.04311 -11.9471
LeftUpLeg  -19.675 31.5644 3.17757
LeftLeg  34.4161 15.3761 8.95389
LeftFoot  -1.70511 -0.00816146 -0.386897
LeftToes  -15.0409 1.83942e-006 5.51297e-008
547
root  -43.3954 33.9391 -4.03326 -171.409 75.4778 -171.409
RightUpLeg  -7.92501 -12.1878 -3.15456
RightLeg  25.3035 2.42628 0.955699
RightFoot  -5.33186 -0.0281714 -0.070899
RightToes  -31.7708 -0.168028 -0.274857
Spine  1.61983 0.468753 -2.20281
Spine1  3.13163 1.09043 -3.7306
HEad  -84.7978 -20.1892 15.2259
LeftShoulder1  -1.94126e-019 -3.10601e-018 -2.51263e-017
LeftArm  -5.62051 18.0954 -74.3745
LeftForeArm  36.613 -12.3431 -2.16236
LeftHand  -0.591083 -1.20227 10.5586
RightShoulder  -4.96962e-017 0 -2.36833e-017
RightArm  -9.53438 -11.3736 77.9093
RightForeArm  55.517 22.0555 1.97297
RightHand  -0.739386 1.95565 -11.843
LeftUpLeg  -18.6386 31.3628 4.64357
LeftLeg  33.5887 16.7535 9.40906
LeftFoot  -0.104154 -3.3788e-005 0.124108
LeftToes  -16.9871 1.83942e-006 5.51297e-008
548
root  -43.4222 34.0965 -3.59561 -170.168 75.7607 -169.762
RightUpLeg  -6.3983 -12.2766 -2.18387
RightLeg  22.4608 2.78784 0.943916
RightFoot  -4.32104 -0.0222934 -0.0567416
RightToes  -32.8776 -0.165507 -0.272598
Spine  1.38503 0.0841657 -1.8015
Spine1  2.67615 0.312939 -2.94684
HEad  -81.1747 -19.4567 13.8601
LeftShoulder1  -1.94126e-019 -3.10601e-018 -2.51263e-017
LeftArm  -5.84939 18.5278 -75.643
LeftForeArm  34.7556 -11.8754 -2.09201
LeftHand  -0.549728 -0.724953 10.5589
RightShoulder  -4.96962e-017 0 -2.36833e-017
RightArm  -9.55019 -11.0458 78.5277
RightForeArm  55.7753 22.2906 2.00668
RightHand  -0.737645 2.1362 -11.5459
LeftUpLeg  -17.5407 29.5516 5.80643
LeftLeg  32.1157 18.6038 9.79584
LeftFoot  1.90787 -0.0121623 0.892018
LeftToes  -18.7466 1.83942e-006 5.51297e-008
